<?xml version="1.0" encoding="UTF-8" standalone="no"?>
<!-- Created with Inkscape (http://www.inkscape.org/) -->

<svg
   xmlns:dc="http://purl.org/dc/elements/1.1/"
   xmlns:cc="http://creativecommons.org/ns#"
   xmlns:rdf="http://www.w3.org/1999/02/22-rdf-syntax-ns#"
   xmlns:svg="http://www.w3.org/2000/svg"
   xmlns="http://www.w3.org/2000/svg"
   xmlns:sodipodi="http://sodipodi.sourceforge.net/DTD/sodipodi-0.dtd"
   xmlns:inkscape="http://www.inkscape.org/namespaces/inkscape"
   width="500"
   height="500"
   id="svg2"
   version="1.1"
   inkscape:version="0.91 r"
   sodipodi:docname="Death.svg">
  <defs
     id="defs4" />
  <sodipodi:namedview
     id="base"
     pagecolor="#ffffff"
     bordercolor="#666666"
     borderopacity="1.0"
     inkscape:pageopacity="0.0"
     inkscape:pageshadow="2"
     inkscape:zoom="0.70710678"
     inkscape:cx="380.78374"
     inkscape:cy="293.52534"
     inkscape:document-units="px"
     inkscape:current-layer="layer1"
     showgrid="false"
     showguides="true"
     inkscape:guide-bbox="true"
     inkscape:window-width="1918"
     inkscape:window-height="1056"
     inkscape:window-x="0"
     inkscape:window-y="0"
     inkscape:window-maximized="1" />
  <metadata
     id="metadata7">
    <rdf:RDF>
      <cc:Work
         rdf:about="">
        <dc:format>image/svg+xml</dc:format>
        <dc:type
           rdf:resource="http://purl.org/dc/dcmitype/StillImage" />
        <dc:title />
      </cc:Work>
    </rdf:RDF>
  </metadata>
  <g
     inkscape:label="Layer 1"
     inkscape:groupmode="layer"
     id="layer1"
     transform="translate(0,-552.36218)">
    <path
       style="fill:#d35400;fill-opacity:1"
       d="m 364.66212,1026.5005 c -1.13636,-7.9497 -9.518,-46.21988 -14.0199,-64.01395 -7.7426,-30.60309 -14.90444,-49.60753 -29.88213,-79.29461 -14.19187,-28.12942 -36.79257,-65.90062 -40.67581,-67.97893 -0.87934,-0.47057 -4.28629,-0.91386 -7.57107,-0.98514 -9.88476,-0.21427 -13.23544,3.63213 -14.74088,16.9214 -1.1284,9.96121 -3.2042,15.74569 -7.86591,21.92017 -2.9234,3.87196 -5.26455,5.58835 -14.14904,10.37302 -26.22335,14.12248 -39.12416,23.06064 -46.75872,32.39631 l -3.91847,4.79164 0.53666,-16.99134 c 0.60051,-19.01329 2.37154,-29.88596 6.67241,-40.96207 6.80529,-17.52576 16.29862,-25.66183 35.88229,-30.75217 10.21868,-2.6561 33.1103,-3.82009 43.39899,-2.20682 3.4192,0.53612 6.31461,0.87685 6.43435,0.7571 0.44483,-0.44482 -27.35631,-45.01192 -30.17303,-48.36932 -1.99648,-2.37977 -5.34368,-4.62102 -10.53382,-7.05319 l -7.60756,-3.56495 4.86462,-2.56632 4.86471,-2.56633 -4.4714,0.57252 c -6.19352,0.79296 -17.1955,4.79309 -23.24325,8.45087 -4.82956,2.92099 -13.54281,11.26132 -16.74514,16.02846 -1.45553,2.16666 -1.50328,1.95463 -1.5488,-6.86629 l -0.0474,-9.10208 -5.14213,-0.56948 c -15.2625,-1.69027 -20.41642,-3.65707 -34.5643,-13.19001 -8.71387,-5.87158 -13.78006,-10.27323 -26.0232,-22.60965 -8.57768,-8.64304 -16.46282,-15.82027 -18.09425,-16.46987 -3.87573,-1.543 -7.79402,-0.68172 -14.057569,3.09 -2.847653,1.71478 -5.377217,3.11773 -5.62136,3.11773 -0.244133,0 -0.152381,-3.11881 0.203899,-6.93067 0.743594,-7.95598 3.18829,-18.17564 5.713465,-23.88418 1.724718,-3.89898 1.724446,-3.95818 -0.0304,-7.50454 -5.237268,-10.58533 -5.496339,-31.41903 -0.472715,-38.00532 3.160387,-4.14355 12.54864,-10.27716 27.24775,-17.80182 l 12.07243,-6.17993 10.81257,-11.58397 c 21.37411,-22.89896 29.45394,-26.67246 42.71854,-19.95077 5.90502,2.99235 15.41542,12.3831 17.74932,17.52611 2.15101,4.73987 2.2822,11.29735 0.3561,17.79403 -1.9768,6.66768 -4.18952,10.80515 -10.25086,19.16775 -10.31724,14.23426 -12.61509,22.3673 -10.73764,38.00496 1.66498,13.86868 9.82037,54.63939 11.5694,57.83832 0.31623,0.57843 0.57494,-5.05555 0.57494,-12.51993 0.86101,-24.96009 4.83492,-32.87313 16.572,-51.63961 l -4.13855,-13.15996 c -2.55988,-8.13984 -4.30919,-15.54806 -4.58587,-19.42003 -0.39921,-5.58881 -0.12484,-7.07492 2.5597,-13.86135 4.17352,-10.55036 4.21296,-17.44483 0.13745,-24.00098 -1.57822,-2.53877 -2.63178,-4.616 -2.34123,-4.616 0.29046,0 1.85036,0.81719 3.46641,1.81592 6.43507,3.97714 17.89688,21.88189 29.91557,46.73189 11.16554,23.08595 16.09562,39.87115 16.09562,54.79956 0,7.01179 0.14631,7.67552 1.56499,7.10094 12.19638,-4.94 13.07993,-5.12977 25.71058,-5.52227 l 12.51992,-0.38919 -5.81282,2.05917 c -8.19224,2.90194 -13.48272,6.23028 -20.64903,12.99059 -11.23047,10.59427 -18.78348,22.42892 -18.8357,29.51332 -0.0564,7.70083 4.73754,16.90593 36.69001,70.44598 17.31873,29.01941 31.77585,52.86406 32.12713,52.98818 0.35117,0.12413 1.96634,-6.71381 3.5891,-15.19535 3.55182,-18.56383 5.59078,-23.1759 15.48778,-35.03308 10.81713,-12.95947 19.05122,-17.71293 35.58718,-20.54368 9.63525,-1.64951 36.26353,-2.02939 37.18992,-0.53058 0.85699,1.38676 -13.0472,18.72865 -24.59442,30.67526 -20.77047,21.48875 -33.61306,28.72098 -47.0837,26.51489 -6.87702,-1.12626 -6.34009,-1.2216 -8.95452,1.59056 -3.00327,3.23041 -6.31157,9.83065 -7.43085,14.8252 -0.88471,3.94799 -0.77409,4.25678 7.95741,22.20017 10.96414,22.53175 19.47062,43.92393 24.67105,62.04296 3.36249,11.71561 16.52246,74.08235 16.52246,78.30205 0,1.149 -4.44162,5.2865 -5.67502,5.2865 -0.21007,0 -0.65506,-1.9115 -0.98907,-4.2478 z M 114.99648,689.98169 c 10.83681,-5.07825 17.75335,-6.5311 30.97101,-6.50534 13.08699,0.0251 19.42413,1.33622 31.37879,6.49024 4.5754,1.97251 8.64384,3.40989 8.66754,3.23792 0.0832,-0.10284 -1.99961,-2.20476 -4.86963,-4.47329 -5.94491,-4.69899 -15.94878,-9.99671 -20.48376,-10.84744 -2.24072,-0.4204 -3.0673,-1.04264 -3.0673,-2.30895 0,-4.4815 5.67457,-10.77957 13.01295,-14.44253 4.74219,-2.36708 5.23476,-3.07839 8.94459,-12.91351 1.15971,-3.07462 4.9883,-10.51951 8.50801,-16.5442 13.34186,-22.83733 13.78453,-30.79419 2.01276,-36.18348 -3.4885,-1.5971 -6.98255,-2.40186 -11.37856,-2.6207 l -6.34412,-0.31576 5.66465,1.29867 c 7.94711,1.82192 13.1639,5.06449 14.45828,8.98671 1.3593,4.1187 0,10.58033 -3.67067,17.47041 -3.8826,7.28463 -19.66997,22.61689 -29.86647,29.00546 -2.10451,1.31861 -1.67695,0.5777 1.98334,-3.43709 10.86712,-11.91959 16.6888,-32.27253 11.91021,-41.63941 -2.8795,-5.64406 -8.23061,-6.7053 -18.23296,-3.61592 -7.37593,2.27818 -8.57748,3.80695 -1.70038,2.16343 7.92252,-1.89336 11.56645,-1.66085 14.12892,0.90163 2.45193,2.45202 2.76377,5.48587 1.20146,11.69039 -1.11355,4.42239 -1.79196,5.17565 -6.39213,7.09772 l -3.22433,1.34724 -1.01179,-4.87357 c -1.32828,-6.39857 -4.65831,-9.40828 -10.40943,-9.40828 -2.44452,0 -3.79273,0.34886 -3.45568,0.89428 0.30397,0.49187 1.92816,0.89429 3.60923,0.89429 4.60725,0 6.1818,2.94557 5.4967,10.28244 -1.61919,17.33911 -15.85382,24.41028 -34.14579,16.96236 l -5.36569,-2.18473 2.68284,2.23865 c 6.88159,5.16286 12.73672,6.71069 18.77991,7.07063 9.71796,-0.74762 12.27364,-1.16086 19.09021,-10.00378 2.72147,-3.53044 6.60184,-8.13438 8.18821,-9.60994 l 2.88432,-2.68284 -2.46169,4.91854 c -7.9295,15.84326 -16.7285,23.67948 -29.61688,26.3761 -8.21521,1.7188 -11.60087,0.52699 -19.6934,-6.93238 -2.13277,-1.96599 -3.78773,-2.78998 -3.87778,-2.70493 -0.34223,0.32328 6.87764,11.53085 9.32082,13.45258 6.42031,5.05027 16.24068,4.9231 27.4901,-0.35602 3.86088,-1.81172 7.16247,-3.12891 7.33704,-2.92698 0.17447,0.20193 0.56402,4.87705 0.86566,10.38904 l 0.54838,10.02184 -8.69608,-0.39536 c -4.78288,-0.2174 -13.0125,-0.57922 -18.28813,-0.80405 -16.38421,-0.69825 -20.4082,-3.94744 -21.67691,-17.50285 -0.29924,-3.19706 -0.79297,-8.02618 -1.0972,-10.73138 l -0.5532,-4.91854 -1.16337,5.36568 c -1.69252,7.80654 -2.16228,23.47917 0.10006,25.487 1.8627,1.54586 1.72301,2.08511 -1.40769,5.4366 -3.761794,4.02704 -5.839742,8.37736 -7.483437,15.66709 -0.765407,3.3945 -1.599596,7.0725 -1.853836,8.17327 -0.401004,1.73607 0.548905,1.34232 7.162567,-2.96865 4.193636,-2.73355 10.984006,-6.54426 15.089726,-8.46831 z M 140.1357,636.1469 c 7.72256,-5.01209 14.05237,-19.54504 10.01586,-22.89502 -1.8568,-1.54102 -4.38153,-0.17179 -14.02116,7.60425 -11.10688,8.95952 -13.87298,10.84539 -13.1521,8.96695 0.81093,-2.11328 7.50283,-11.44975 8.53322,-12.60488 1.02431,-1.32721 1.95669,-2.49576 3.09672,-4.47928 l -2.59243,1.64986 c -5.9661,3.79693 -8.65288,6.29108 -11.48069,10.65768 -3.31108,5.11278 -4.38349,8.48994 -3.26877,10.29362 1.07108,1.73302 5.51718,-0.75987 18.76746,-10.52264 6.09515,-4.49082 11.21429,-8.03288 11.37588,-7.87129 1.05981,7.80662 -5.40807,15.36974 -10.31482,19.20075 -2.08251,1.59853 -3.19544,2.90641 -2.47313,2.90641 0.72231,0 3.15735,-1.37693 5.51396,-2.90641 z"
       id="path3002"
       inkscape:connector-curvature="0"
       sodipodi:nodetypes="cssccsssscsssscsscccsssscssscssssssscsssssscccssssssssccccssssssscssssssssccccccscsssssscssscsssscsscsscssscccsscsscscccsccssscscsscscsssscccscsccss" />
  </g>
</svg>
