<?xml version="1.0" encoding="UTF-8" standalone="no"?>
<!-- Created with Inkscape (http://www.inkscape.org/) -->

<svg
   xmlns:osb="http://www.openswatchbook.org/uri/2009/osb"
   xmlns:dc="http://purl.org/dc/elements/1.1/"
   xmlns:cc="http://creativecommons.org/ns#"
   xmlns:rdf="http://www.w3.org/1999/02/22-rdf-syntax-ns#"
   xmlns:svg="http://www.w3.org/2000/svg"
   xmlns="http://www.w3.org/2000/svg"
   xmlns:sodipodi="http://sodipodi.sourceforge.net/DTD/sodipodi-0.dtd"
   xmlns:inkscape="http://www.inkscape.org/namespaces/inkscape"
   width="500"
   height="500"
   id="svg2"
   version="1.1"
   inkscape:version="0.91 r"
   sodipodi:docname="Early-life.svg">
  <defs
     id="defs4">
    <linearGradient
       id="linearGradient5576"
       osb:paint="solid">
      <stop
         style="stop-color:#c52d2f;stop-opacity:1;"
         offset="0"
         id="stop5578" />
    </linearGradient>
    <linearGradient
       inkscape:collect="always"
       id="linearGradient4134"
       osb:paint="gradient">
      <stop
         style="stop-color:#c52d2f;stop-opacity:1;"
         offset="0"
         id="stop4136" />
      <stop
         style="stop-color:#c52d2f;stop-opacity:0;"
         offset="1"
         id="stop4138" />
    </linearGradient>
  </defs>
  <sodipodi:namedview
     id="base"
     pagecolor="#ffffff"
     bordercolor="#666666"
     borderopacity="1.0"
     inkscape:pageopacity="0.0"
     inkscape:pageshadow="2"
     inkscape:zoom="0.70710678"
     inkscape:cx="399.15322"
     inkscape:cy="64.905273"
     inkscape:document-units="px"
     inkscape:current-layer="layer1"
     showgrid="false"
     showguides="true"
     inkscape:guide-bbox="true"
     inkscape:window-width="1918"
     inkscape:window-height="1056"
     inkscape:window-x="0"
     inkscape:window-y="0"
     inkscape:window-maximized="1" />
  <metadata
     id="metadata7">
    <rdf:RDF>
      <cc:Work
         rdf:about="">
        <dc:format>image/svg+xml</dc:format>
        <dc:type
           rdf:resource="http://purl.org/dc/dcmitype/StillImage" />
        <dc:title />
      </cc:Work>
    </rdf:RDF>
  </metadata>
  <g
     inkscape:label="Layer 1"
     inkscape:groupmode="layer"
     id="layer1"
     transform="translate(0,-552.36218)">
    <path
       style="fill:#d35400;fill-opacity:1"
       d="m 168.87784,1008.2654 c -41.2459,-0.5653 -85.648285,-3.0129 -99.97242,-5.5108 -13.902634,-2.4245 -15.710307,-4.67323 -7.17647,-8.92761 10.512159,-5.24058 29.624404,-8.12606 33.084267,-4.9949 1.415052,1.28063 1.561097,1.26853 2.481872,-0.20583 1.386981,-2.22086 7.079641,-5.32838 14.490741,-6.92925 6.5423,-1.4132 12.89827,-1.08037 16.7171,1.17276 l 2.70377,1.59531 0.52527,-2.79994 c 1.16807,-6.22616 10.56573,-12.72575 23.17022,-16.0249 7.93782,-2.07764 17.49281,-1.42973 23.70001,1.60709 3.63438,1.77813 4.79197,2.05304 5.07462,1.20512 0.20146,-0.60426 1.25367,-1.98607 2.33833,-3.07073 4.92044,-3.07531 10.21847,-1.92192 16.35353,0.2695 6.78926,2.50954 6.93385,2.49139 9.23992,-1.16163 3.56314,-5.64435 5.80659,-5.88923 12.65604,-1.38125 l 2.13444,1.40481 1.4964,-3.01231 c 2.30647,-4.64319 6.35138,-6.33597 15.21281,-6.36656 l 7.26166,-0.025 0.91239,-10.08251 c 1.56554,-17.3008 2.71845,-36.36658 2.71845,-44.95374 l 0,-8.24563 -9.72838,-11.28972 c -11.10778,-12.8905 -27.94082,-30.1402 -37.60442,-38.5351 l -6.58681,-5.72204 -12.37422,0.44587 c -7.58038,0.27319 -15.11897,0.0783 -19.45903,-0.50275 -22.09371,-2.95832 -41.56977,-13.14444 -52.64011,-27.53119 -7.61225,-9.89265 -11.79513,-19.37979 -19.77821,-44.85841 -3.076374,-9.81867 -5.839031,-18.49217 -6.13926,-19.2745 -0.420939,-1.09691 0.637974,-0.76869 4.626164,1.43386 8.617756,4.75938 16.311656,7.0113 32.604996,9.54297 17.32159,2.69141 24.25762,4.39735 31.9934,7.86899 22.7956,10.23 36.01822,28.99061 47.11123,66.84257 0.15436,0.52664 3.65932,3.21531 7.78887,5.97482 9.20095,6.14837 18.24334,13.07279 30.76344,23.55768 5.24623,4.39348 9.6606,7.86294 9.80964,7.71004 0.14909,-0.15298 -0.0646,-7.53972 -0.47444,-16.41509 -0.82678,-17.8947 -3.1314,-40.02094 -5.56035,-53.38299 -0.8743,-4.80956 -1.59515,-8.96767 -1.60193,-9.24023 -0.008,-0.27256 -1.7369,-1.14332 -3.8448,-1.93499 -6.57036,-2.46784 -18.06148,-8.4835 -25.21415,-13.19979 -8.11145,-5.34854 -21.75233,-18.58432 -26.58595,-25.79653 -10.45536,-15.60025 -16.18288,-34.47044 -16.17247,-53.28228 0.008,-14.99398 2.37174,-26.55005 12.04357,-58.88749 2.70304,-9.03739 5.83797,-20.11146 6.96652,-24.609 1.12854,-4.49748 2.44315,-9.62963 2.92129,-11.40471 l 0.86931,-3.22741 1.39641,4.84112 c 1.97574,6.84904 5.77884,14.89094 10.2325,21.63704 2.40048,3.63609 11.35736,13.46306 24.03566,26.37068 12.6095,12.83744 21.66157,22.76527 24.07108,26.3999 10.83643,16.34635 15.7646,36.00257 14.86973,59.30859 -0.76192,19.84227 -5.76336,33.86787 -17.96983,50.39326 -1.21463,1.64444 -1.13774,2.33802 1.16309,10.48908 7.47186,26.47083 12.78789,56.1588 15.78163,88.13421 0.68194,7.28426 1.37164,13.37584 1.53262,13.5368 0.16096,0.16098 2.41047,-3.25734 4.99893,-7.59611 2.58846,-4.33884 7.29677,-11.70114 10.46294,-16.36071 3.16618,-4.65957 7.08126,-10.74615 8.70029,-13.52559 l 2.94365,-5.05364 -2.35907,-7.04915 c -4.87074,-14.55369 -4.99871,-29.11673 -0.39553,-45.00131 5.77368,-19.92386 13.77797,-31.00977 33.52431,-46.43099 16.31537,-12.74173 22.61617,-20.28806 26.5545,-31.80362 l 1.37972,-4.03426 0.94401,4.36878 c 2.03746,9.42961 4.99136,26.4204 6.22389,35.80013 1.74894,13.31016 1.21005,31.48646 -1.20131,40.51635 -6.49283,24.3145 -25.85099,44.45063 -51.15299,53.20893 l -7.28218,2.52069 -2.55312,6.02301 c -1.40424,3.3126 -5.12731,11.2877 -8.27347,17.72234 -6.05382,12.38156 -11.84201,25.87198 -17.65555,41.14949 -3.75734,9.87409 -3.89435,10.9798 -3.01173,24.3071 l 0.51436,7.7666 5.35945,0.3835 c 6.18927,0.4428 10.68353,2.30066 12.13739,5.01726 0.99904,1.86673 1.08006,1.87835 4.63675,0.66646 9.5679,-3.26009 22.79842,1.73376 25.41859,9.59421 0.17307,0.51929 1.39401,0.18525 3.08,-0.84252 6.03113,-3.67675 21.48575,-1.38375 35.28334,5.23486 3.22523,1.54707 7.10812,3.90525 8.62864,5.24026 l 2.76468,2.42742 2.6673,-1.45483 c 4.01279,-2.18868 14.87634,-1.91442 21.16576,0.53438 2.63001,1.02397 6.03614,2.60185 7.56924,3.50642 2.00858,1.18511 3.9481,1.59079 6.94191,1.45209 5.36678,-0.24859 18.64427,1.89448 24.51009,3.95615 5.23977,1.84165 8.72232,4.82417 7.95814,6.81549 -2.39305,6.23615 -35.0779,9.97265 -102.59307,11.72805 -25.77757,0.6703 -130.31532,0.8269 -171.8596,0.2575 z"
       id="path3032"
       inkscape:connector-curvature="0"
       sodipodi:nodetypes="ssssssscssscccsscsscsscsscssssssssssscsscssssssscsssssssscssscsssscsssscsssscssssssscssssssss" />
  </g>
</svg>
