<?xml version="1.0" encoding="UTF-8" standalone="no"?>
<!-- Created with Inkscape (http://www.inkscape.org/) -->

<svg
   xmlns:dc="http://purl.org/dc/elements/1.1/"
   xmlns:cc="http://creativecommons.org/ns#"
   xmlns:rdf="http://www.w3.org/1999/02/22-rdf-syntax-ns#"
   xmlns:svg="http://www.w3.org/2000/svg"
   xmlns="http://www.w3.org/2000/svg"
   xmlns:sodipodi="http://sodipodi.sourceforge.net/DTD/sodipodi-0.dtd"
   xmlns:inkscape="http://www.inkscape.org/namespaces/inkscape"
   width="500"
   height="500"
   id="svg2"
   version="1.1"
   inkscape:version="0.91 r"
   sodipodi:docname="Fight-for-self-rule.svg">
  <defs
     id="defs4" />
  <sodipodi:namedview
     id="base"
     pagecolor="#ffffff"
     bordercolor="#666666"
     borderopacity="1.0"
     inkscape:pageopacity="0.0"
     inkscape:pageshadow="2"
     inkscape:zoom="0.70710678"
     inkscape:cx="447.57299"
     inkscape:cy="201.32887"
     inkscape:document-units="px"
     inkscape:current-layer="layer1"
     showgrid="false"
     showguides="true"
     inkscape:guide-bbox="true"
     inkscape:window-width="1918"
     inkscape:window-height="1056"
     inkscape:window-x="0"
     inkscape:window-y="0"
     inkscape:window-maximized="1" />
  <metadata
     id="metadata7">
    <rdf:RDF>
      <cc:Work
         rdf:about="">
        <dc:format>image/svg+xml</dc:format>
        <dc:type
           rdf:resource="http://purl.org/dc/dcmitype/StillImage" />
        <dc:title />
      </cc:Work>
    </rdf:RDF>
  </metadata>
  <g
     inkscape:label="Layer 1"
     inkscape:groupmode="layer"
     id="layer1"
     transform="translate(0,-552.36218)">
    <path
       style="fill:#d35400;fill-opacity:1;stroke:#916f6f;stroke-width:0;stroke-miterlimit:4;stroke-opacity:1"
       d="m 172.63413,570.12734 0,63.09013 37.05579,0 0,-63.09013 z m 54.41211,0 0,63.09013 17.35635,0 c 0.48251,0 3.01653,0.0441 6.5954,0.86783 2.47392,0.57761 5.52508,1.60008 8.67818,3.29767 l 0,-67.25563 z m 49.98625,0 0,100.05943 c 0.003,3.10302 0.53807,5.36623 1.21494,7.02916 0.68385,1.66621 1.53432,2.79787 2.60347,3.81841 2.08971,2.01331 5.44641,3.41571 9.02529,4.07885 2.36046,0.44763 4.67232,0.61091 6.50863,0.60733 1.58984,0 2.82908,-0.12769 3.29769,-0.17212 l 0.17356,0 c 0.35756,-0.0441 0.76369,-0.0863 1.12818,-0.0863 2.71105,0 4.53001,-0.49299 5.90115,-1.12837 1.36421,-0.64558 2.38823,-1.52731 3.29771,-2.60342 1.81546,-2.10694 2.98876,-5.41849 3.47124,-8.07056 0.33671,-1.74977 0.42698,-3.16244 0.43393,-3.47126 l 0,-100.05944 -37.05579,0 z m 54.41212,0.1722 0,99.88585 c 0.003,3.10301 0.45127,5.36624 1.12816,7.02917 0.68384,1.6662 1.5343,2.79777 2.60345,3.8184 2.08971,2.01689 5.44295,3.4157 9.02529,4.07884 2.35699,0.44763 4.75911,0.61092 6.59541,0.60734 1.59332,0 2.74231,-0.12778 3.21092,-0.17221 l 0.17356,0 c 0.35756,-0.0442 0.85048,-0.0856 1.21496,-0.0856 2.71106,0 4.52999,-0.49297 5.90116,-1.12835 1.3642,-0.64567 2.29796,-1.5273 3.21092,-2.6034 1.81547,-2.10695 3.07552,-5.41851 3.55804,-8.07058 0.33672,-1.74985 0.34018,-3.16244 0.34712,-3.47125 l 0,-36.96905 0,-31.41493 c -0.15857,-0.46289 -0.32177,-0.92423 -0.60747,-1.64901 -0.74979,-1.90558 -2.00638,-4.6445 -3.7316,-7.63676 -3.46433,-6.01229 -8.97672,-12.90954 -16.92243,-17.35635 -4.35454,-2.43434 -9.43222,-4.28186 -15.70749,-4.85974 z m -166.01335,80.27289 c -13.93973,14.34108 -22.4187,26.51994 -27.33624,36.36161 -5.21036,10.44521 -6.50168,18.28665 -6.50862,23.77819 0.014,6.83118 1.92169,10.2133 2.25633,10.76093 l 0.17357,0.1722 56.40807,73.7644 c 1.14901,1.50319 1.82242,3.39856 1.82242,5.29383 l 0,233.89341 137.02828,0 0,-233.8934 c 0,-1.77724 0.55192,-3.48514 1.56206,-4.94667 l 37.57647,-54.32529 0,-41.30813 c -3.68003,1.69097 -7.97155,2.66929 -12.67012,2.69036 -0.84998,0.0944 -2.4105,0.26106 -4.94656,0.26106 -2.98875,0 -6.89046,-0.26383 -11.19484,-1.21491 -4.29048,-0.96176 -9.03918,-2.614 -13.45115,-5.81452 -1.08274,-0.78624 -2.11643,-1.70872 -3.12414,-2.69016 -1.24353,1.42272 -2.66682,2.76486 -4.33909,3.992 -4.44252,3.29711 -10.43878,5.41823 -17.26955,5.46735 -0.80767,0.092 -2.41627,0.26107 -5.03333,0.26107 -2.98877,0 -6.89046,-0.26383 -11.19485,-1.2149 -4.29049,-0.9581 -9.03917,-2.61402 -13.45114,-5.81453 -0.92351,-0.67071 -1.82303,-1.43459 -2.69025,-2.25607 -1.55573,1.9606 -3.38293,3.82643 -5.6408,5.46708 -3.88927,2.86117 -8.94989,4.81228 -14.66611,5.46716 9.4917,6.13023 19.03185,14.25573 26.4684,25.25363 7.60556,11.2399 12.69791,25.49295 12.67012,42.43609 0,4.79389 -3.88432,8.67808 -8.67814,8.67808 -4.79382,0 -8.67817,-3.88419 -8.67817,-8.67808 -0.0249,-13.29829 -3.75939,-23.61858 -9.45921,-32.28286 -5.70328,-8.6365 -13.50322,-15.56154 -21.60864,-20.82761 -16.18652,-10.55596 -33.25473,-14.40906 -33.75806,-14.49232 -4.35644,-0.92341 -7.32091,-5.03334 -6.85576,-9.45935 0.46514,-4.42905 4.14122,-7.72351 8.59138,-7.72351 l 36.969,0 c 4.28007,-0.0276 6.73079,-1.07968 8.59139,-2.34317 1.83629,-1.27746 3.18662,-3.02692 4.25231,-5.20692 1.63231,-3.23852 2.27089,-7.15142 2.42988,-8.93841 0.0485,-0.54597 0.006,-0.88587 0,-0.95441 l 0,-0.0863 c -0.0277,-6.13225 -1.34435,-9.88206 -2.86381,-12.40966 -1.54818,-2.52708 -3.42613,-4.02329 -5.46723,-5.12028 -1.35034,-0.71504 -2.78743,-1.17656 -3.99196,-1.47515 -1.60025,-0.39933 -2.75619,-0.51367 -2.95058,-0.52067 l -26.0345,0 -52.93683,0 z"
       id="rect3958-3"
       inkscape:connector-curvature="0"
       sodipodi:nodetypes="cccccccsccccccccccccscccccccccccccccscccccccccccccccccsccsccccscccccscccccccscccccscccsccccccccc" />
  </g>
</svg>
